<svg width="85" height="76" viewBox="0 0 85 76" fill="none" xmlns="http://www.w3.org/2000/svg">
<g clip-path="url(#clip0_301_2)">
<path d="M41.66 72.5567L44.5468 69.67L41.66 66.7832L38.7733 69.67L41.66 72.5567ZM42.16 26C42.16 25.7239 41.9361 25.5 41.66 25.5C41.3839 25.5 41.16 25.7239 41.16 26H42.16ZM42.16 69.67V26H41.16V69.67H42.16Z" fill="#FF0000"/>
<path d="M41.909 25.3985C41.6689 25.5348 41.5847 25.84 41.721 26.0802C41.8573 26.3203 42.1625 26.4045 42.4027 26.2682L41.909 25.3985ZM84.0104 2.07494L80.0749 0.989512L78.9895 4.92506L82.925 6.01049L84.0104 2.07494ZM42.4027 26.2682L81.7468 3.93483L81.2531 3.06517L41.909 25.3985L42.4027 26.2682Z" fill="#0047FF"/>
<path d="M41.0192 26.2665C41.2582 26.4048 41.5638 26.3229 41.7017 26.0837C41.8396 25.8444 41.7576 25.5384 41.5185 25.4001L41.0192 26.2665ZM1.00102 2.54409L2.05844 6.49044L5.99884 5.43462L4.94142 1.48827L1.00102 2.54409ZM41.5185 25.4001L3.7496 3.55615L3.25026 4.42256L41.0192 26.2665L41.5185 25.4001Z" fill="#FFD600"/>
<ellipse cx="41.6603" cy="26.3298" rx="2.48227" ry="2.47794" transform="rotate(-90 41.6603 26.3298)" fill="#D9D9D9"/>
</g>
<defs>
<clipPath id="clip0_301_2">
<rect width="75" height="84" fill="white" transform="matrix(0 -1 1 0 0.5 75.5)"/>
</clipPath>
</defs>
</svg>
