<svg width="454" height="310" viewBox="0 0 454 310" fill="none" xmlns="http://www.w3.org/2000/svg">
<path d="M208.667 1.33342C189.333 5.46675 174.667 41.4668 167.333 102.667C164.267 127.333 164.267 183.467 167.333 208C171.6 243.467 177.867 269.2 186.133 285.867C191.733 297.067 196 302.267 202.533 306.267C219.467 316.8 236.533 300.4 247.333 263.2C252.533 245.333 252.933 240.667 249.467 238.8C244.667 236.267 242.133 238.8 240.133 248.267C236.133 267.6 228.267 286.667 220.933 294.4C213.2 302.4 206.133 299.333 198.267 284.4C184 256.933 176.8 214.133 176.8 156C176.667 94.1334 185.333 46.0001 200.8 21.7334C205.467 14.2667 208.667 12.0001 213.733 12.0001C222.133 12.0001 234.133 34.5334 240.133 61.7334C242 70.2668 243.733 72.4001 248.267 71.7334C250.933 71.3334 251.333 70.6668 251.067 65.3334C250.933 62.0001 249.333 54.0001 247.333 47.4668C237.867 14.9334 223.733 -1.86658 208.667 1.33342Z" fill="#5CEB2A"/>
<path d="M328.8 2.00002C313.333 7.46669 300.933 32.2667 293.2 74L290.4 89.3334H243.867C199.333 89.3334 197.333 89.4667 196 91.8667C194.267 95.2 194.267 95.4667 196.8 97.8667C198.533 99.7334 204.8 100 244.133 100H289.333L288.267 110.267C287.733 116 287.333 136.267 287.333 155.333C287.333 174.4 287.733 194.667 288.267 200.267L289.333 210.667H244.267C219.6 210.667 198.667 211.2 197.867 211.733C195.6 213.2 194.933 216.4 196.267 218.933C197.333 221.2 200.933 221.333 243.867 221.333H290.4L293.2 236.667C302 283.733 316.4 309.333 334.133 309.333C340 309.333 348.8 304.533 352.8 299.067C359.467 290 366 274.533 370.533 256.8C374 243.467 374 240.533 370.533 238.667C366.8 236.667 364.4 238.8 362.667 245.867C354.267 279.867 344.267 298.667 334.667 298.667C322.133 298.667 308.8 266.133 302.133 219.333C296.933 183.2 296.933 127.467 302.133 91.3334C308.8 44.2667 322 12 334.667 12C338.933 12 346.133 19.2 350.4 27.6C353.333 33.2 360.667 55.4667 362.133 62.6667C363.6 70.1334 365.067 72.2667 369.067 71.7334C372.533 71.3334 372.667 71.0667 372.4 64.2667C372.267 60.4 370.8 53.2 369.333 48.2667C358.667 12.6667 344.4 -3.46664 328.8 2.00002Z" fill="#5CEB2A"/>
<path d="M41.6 90.9334C39.4667 93.0667 39.6 96.6667 41.8667 98.5334C43.0667 99.6001 58.6667 99.8667 96.6667 99.7334C145.467 99.3334 149.867 99.2001 151.2 96.9334C152.267 95.3334 152.267 94.0001 151.2 92.2667C149.867 90.1334 145.467 90.0001 96.5334 89.6001C56.1334 89.3334 42.8 89.7334 41.6 90.9334Z" fill="#5CEB2A"/>
<path d="M317.333 91.2001C316.533 92.2667 316 94.5334 316.267 96.2667C316.667 99.2001 317.333 99.3334 332 100.267C340.533 100.8 349.867 101.733 352.667 102.4L358 103.467L358.8 118.667C360 139.333 361.867 144.933 371.867 156.133C384 169.867 396.667 174.667 421.6 174.667H437.2L439.333 181.6C442 190.533 441.867 199.2 439.2 203.467C434.4 210.667 434 210.667 374.267 210.667C314.667 210.667 315.2 210.533 316.267 217.6L316.667 220.667L372.667 221.067C410.667 221.333 430.267 220.933 433.733 220C440.667 218 448.667 210.4 451.467 203.2C454.133 196 453.467 187.333 448.933 174C440 147.867 423.2 125.067 402.267 110.8C393.733 105.067 376 96.9334 366 94.2667C348.267 89.4667 320.267 87.8667 317.333 91.2001ZM383.2 112.267C398.667 120 409.867 129.067 419.2 141.333C424.933 148.667 432 160.133 432 161.733C432 162.267 425.467 162.667 417.333 162.667C399.467 162.667 390.4 159.867 382 151.467C373.2 142.533 370.133 134.933 369.6 119.467L369.067 106.4L372.133 107.333C373.867 107.867 378.933 110.133 383.2 112.267Z" fill="#5CEB2A"/>
<path d="M0.800011 134.133C-0.399989 137.333 -0.266656 138.267 2.13334 140.533C3.86668 142.4 9.73334 142.667 45.8667 142.667C85.3333 142.667 87.7333 142.533 89.8667 140.133C91.7333 138.133 91.8667 136.933 90.6667 134.8C89.2 132 88.4 132 45.4667 132C6.66668 132 1.46668 132.267 0.800011 134.133Z" fill="#5CEB2A"/>
<path d="M0.800011 171.467C-0.399989 174.667 -0.266656 175.6 2.13334 177.867C3.86668 179.733 9.60001 180 44.4 180C66.5333 180 86 179.6 87.6 179.2C91.2 178.267 92.4 175.333 90.6667 171.867C89.3334 169.467 87.3334 169.333 45.4667 169.333C6.66668 169.333 1.46668 169.6 0.800011 171.467Z" fill="#5CEB2A"/>
<path d="M39.7333 212.133C36.9333 213.733 36.6667 217.733 39.2 219.867C40.4 220.933 56 221.2 94.1333 221.067L147.333 220.667L147.733 216.8C148 214.667 147.467 212.533 146.4 211.867C143.867 210.133 42.5333 210.4 39.7333 212.133Z" fill="#5CEB2A"/>
</svg>
