<svg width="118" height="27" viewBox="0 0 118 27" fill="none" xmlns="http://www.w3.org/2000/svg">
<path d="M0 13.4404H25.7143C27.6282 -2.47414 43.9868 -3.73684 43.9868 17.166C43.9868 28.6354 36.5765 28.6434 36.5765 17.0118C36.5765 -3.73684 54.8326 -3.79997 54.8326 16.9067C54.8326 28.6512 47.5084 28.7143 47.5084 17.1237C47.5084 -3.73684 65.7441 -3.79996 65.7441 17.0084C65.7441 28.6512 58.3846 28.7159 58.3846 17.0462C58.3846 -3.73567 77.0025 -3.73572 77.0025 17.1225C77.0025 28.7154 69.6428 28.7155 69.6428 17.0334C69.6428 -3.73568 85.4234 -2.47299 87.3844 13.8213L117.232 13.7987" stroke="#C40909"/>
</svg>
